<svg xmlns="http://www.w3.org/2000/svg" viewBox="0 0 512 512"><path d="M375.467 358.4c-35.172 0-68.274-20.561-84.603-51.231 4.71-.312 7.803-3.631 7.803-8.503V162.133c0-5.12-3.413-8.533-8.533-8.533H281.6v-17.067c14.507 0 25.6-11.093 25.6-25.6V25.6c0-14.507-11.093-25.6-25.6-25.6H59.733c-14.507 0-25.6 11.093-25.6 25.6v85.333c0 14.507 11.093 25.6 25.6 25.6v34.987c.853 19.627-1.707 39.253-5.12 58.027v1.707c-6.75 32.906-11.825 66.439-15.238 100.185-.043.169-.088.337-.122.509-3.413 30.72-5.12 63.147-5.12 94.72 0 .34.017.672.047.997-.018 2.513-.047 5.026-.047 7.536v59.733c0 9.387 7.68 17.067 17.067 17.067h128c9.387 0 17.067-7.68 17.067-17.067V481.28l52.907 16.213C281.6 506.88 314.88 512 348.16 512h121.173c5.12 0 8.533-3.413 8.533-8.533v-39.253C477.867 404.48 432.64 358.4 375.467 358.4zM384 375.893c42.574 4.246 75.156 39.993 76.733 84.908H384v-84.908zm-193.707-85.76l-43.52-24.747 53.76-27.307c3.413-1.707 5.12-4.267 5.12-7.68s-2.56-5.973-5.12-7.68l-53.76-27.307 43.52-24.747h91.306v17.067H256c-5.12 0-8.533 3.413-8.533 8.533 0 4.267 3.413 8.533 8.533 8.533h25.6v17.067h-17.067c-5.12 0-8.533 3.413-8.533 8.533s3.413 8.533 8.533 8.533H281.6V256H256c-5.12 0-8.533 3.413-8.533 8.533s3.413 8.533 8.533 8.533h25.6v17.067h-91.307zM51.2 110.933v-25.6h25.6c5.12 0 8.533-3.413 8.533-8.533s-3.413-8.533-8.533-8.533H51.2V51.2h42.667c5.12 0 8.533-3.413 8.533-8.533s-3.413-8.533-8.533-8.533H51.2V25.6c0-5.12 3.413-8.533 8.533-8.533H281.6c5.12 0 8.533 3.413 8.533 8.533v25.6h-25.6c-5.12 0-8.533 3.413-8.533 8.533s3.413 8.533 8.533 8.533h25.6v17.067h-42.667c-5.12 0-8.533 3.413-8.533 8.533 0 5.12 3.413 8.533 8.533 8.533h42.667v8.533c0 5.12-3.413 8.533-8.533 8.533H59.734c-5.121.002-8.534-3.412-8.534-8.532zm19.627 122.88v-1.707c4.267-20.48 5.973-40.96 5.973-61.44v-34.133h187.733V153.6h-76.8c-1.707 0-2.56 0-4.267.853l-59.733 34.133c-2.56 1.707-4.267 4.267-4.267 7.68s1.707 5.973 5.12 7.68l52.907 26.453-52.907 26.453c-3.413 1.707-5.12 5.12-5.12 7.68s1.707 5.973 4.267 7.68l59.733 34.133c1.707.853 2.56.853 4.267.853h84.48c15.968 37.524 53.598 64.586 94.72 67.916v85.674c-38.956-.098-77.073-6.923-114.347-21.324l-56.487-18.571c-3.019-53.662-47.849-96.629-102.233-96.629H57.249c3.264-30.269 7.808-60.447 13.578-90.451zM51.865 398.864c.057-1.524.121-3.05.18-4.576a1042.625 1042.625 0 0 1 3.508-52.955h38.314c44.373 0 81.067 34.133 85.333 76.8H51.363c.11-6.424.271-12.847.502-19.269zm296.295 96.069c-31.573 0-63.147-5.12-93.867-14.507l-64-19.627c-2.56 0-5.12 0-7.68 1.707-1.707 1.707-3.413 4.267-3.413 6.827v25.6h-128V435.2h134.827l60.587 20.48c39.253 14.507 79.36 22.187 121.173 22.187H460.8v17.067H348.16z"/></svg>