<svg xmlns="http://www.w3.org/2000/svg" viewBox="0 0 480.048 480.048"><path d="M228.973 370.455c-9.766-37.631-20.835-80.283-18.167-143.398.634-15.007-1.17-40.179-8.136-65.816-8.184-30.12-21.565-53.579-38.695-67.841-18.981-15.801-42.105-20.731-68.722-14.652-19.361 4.421-46.514 15.25-65.916 41.732-19.176 26.173-25.869 60.991-19.892 103.49 4.559 32.371 24.036 88.277 48.466 139.115 12.909 26.863 26.465 50.738 39.204 69.042 15.143 21.76 29.294 35.949 42.061 42.173 7.943 3.873 17 5.748 26.348 5.748 16.327 0 33.534-5.725 47.195-16.525 20.392-16.121 28.745-40.259 22.917-66.226-1.948-8.676-4.238-17.501-6.663-26.842zm-28.657 77.379c-15.426 12.195-37.453 15.763-52.375 8.489-18.837-9.184-45.754-47.277-72.003-101.9-23.626-49.165-42.388-102.71-46.688-133.24-5.226-37.156.232-67.061 16.221-88.882 15.759-21.509 38.191-30.391 54.235-34.055 5.888-1.345 11.473-2.02 16.779-2.02 13.171 0 24.62 4.158 34.693 12.544 32.56 27.107 40.771 90.83 39.646 117.442-2.794 66.096 9.174 112.211 18.791 149.267 2.381 9.177 4.631 17.846 6.506 26.199 5.583 24.874-7.506 39.595-15.805 46.156z"/><path d="M116.836 168.665v-25.148h-20v26.62c-34.883 45.201-32.419 83.806-24.214 141.336l19.8-2.823c-7.742-54.294-8.713-85.535 16.246-120.871 34.742 28.958 43.685 59.238 49.61 112.514l19.877-2.211c-6.527-58.68-17.983-95.346-61.319-129.417zM450.711 44.252C431.308 17.77 404.156 6.942 384.796 2.52c-26.622-6.079-49.742-1.15-68.722 14.652-17.13 14.262-30.511 37.721-38.695 67.841-6.966 25.638-8.771 50.809-8.136 65.816 2.668 63.111-8.399 105.762-18.165 143.392-2.425 9.344-4.715 18.17-6.663 26.85-5.828 25.965 2.523 50.103 22.914 66.223 13.664 10.803 30.867 16.528 47.197 16.527 9.344 0 18.406-1.876 26.347-5.748 12.767-6.225 26.918-20.414 42.061-42.174 12.738-18.305 26.295-42.179 39.204-69.042 24.431-50.838 43.908-106.745 48.466-139.117 5.976-42.496-.717-77.315-19.893-103.488zm.088 100.702c-4.3 30.531-23.062 84.077-46.688 133.242-26.249 54.623-53.166 92.717-72.003 101.901-14.923 7.276-36.95 3.705-52.375-8.49-8.299-6.561-21.386-21.281-15.803-46.155 1.875-8.356 4.125-17.026 6.507-26.206 9.615-37.054 21.582-83.168 18.788-149.26-1.125-26.612 7.085-90.334 39.646-117.442C338.945 24.157 350.392 20 363.564 20c5.305 0 10.893.675 16.78 2.02 16.043 3.664 38.476 12.545 54.235 34.054 15.988 21.821 21.445 51.726 16.22 88.88z"/><path d="M383.213 67.29h-20v25.141c-20.405 16-33.824 32.349-43.178 52.495-8.834 19.028-14.26 42.034-18.141 76.928l19.877 2.211c5.925-53.276 14.868-83.556 49.61-112.514 24.959 35.336 23.989 66.577 16.246 120.87l19.8 2.823c8.204-57.53 10.668-96.134-24.214-141.335V67.29z"/></svg>