<svg xmlns="http://www.w3.org/2000/svg" width="512" height="512" viewBox="0 0 512 512"><path fill="rgba(1,1,56,.7)" d="M112 160h288c8.833 0 16-7.167 16-16s-7.167-16-16-16H112c-8.833 0-16 7.167-16 16s7.167 16 16 16zm288 32H112c-8.833 0-16 7.167-16 16s7.167 16 16 16h288c8.833 0 16-7.167 16-16s-7.167-16-16-16zm0 64H112c-8.833 0-16 7.167-16 16s7.167 16 16 16h288c8.833 0 16-7.167 16-16s-7.167-16-16-16zm0 64H112c-8.833 0-16 7.167-16 16s7.167 16 16 16h288c8.833 0 16-7.167 16-16s-7.167-16-16-16z"/></svg>