<svg xmlns="http://www.w3.org/2000/svg" viewBox="0 0 359.145 359.145"><path d="M329.897 145.391L282.363 10.03a15 15 0 0 0-28.305 0l-47.534 135.36c-7.117 20.267-4.075 41.941 8.346 59.467 12.42 17.524 31.861 27.575 53.341 27.575s40.923-10.051 53.343-27.576c12.419-17.524 15.46-39.199 8.343-59.465zm-32.82 42.119c-6.722 9.483-17.242 14.923-28.866 14.923-11.623 0-22.144-5.438-28.865-14.922-6.721-9.484-8.367-21.214-4.517-32.181l33.382-95.059 33.382 95.059c3.85 10.968 2.204 22.696-4.516 32.18zm-128.485-16.647a14.998 14.998 0 0 0-28.304 0l-39.521 112.545c-6.102 17.375-3.388 36.718 7.26 51.742 10.648 15.024 27.999 23.994 46.414 23.994s35.766-8.97 46.414-23.994c10.647-15.024 13.361-34.367 7.26-51.742l-39.523-112.545zm7.785 146.941c-5.108 7.207-13.104 11.341-21.938 11.341s-16.829-4.134-21.938-11.341c-5.107-7.207-6.358-16.121-3.432-24.456l25.369-72.242 25.369 72.242c2.929 8.335 1.678 17.249-3.43 24.456zm-67.665-160.548a45.912 45.912 0 0 0 5.852-41.697L85.462 32.688a14.998 14.998 0 0 0-28.304 0l-29.102 82.871a45.912 45.912 0 0 0 5.852 41.697c8.58 12.107 22.563 19.336 37.402 19.336s28.822-7.229 37.402-19.336zm-24.475-17.347c-3.01 4.247-7.722 6.683-12.927 6.683s-9.917-2.436-12.927-6.683-3.747-9.5-2.022-14.411L71.31 82.93l14.949 42.568c1.725 4.911.987 10.164-2.022 14.411z" fill="rgba(1,1,56,.7)"/></svg>