<svg xmlns="http://www.w3.org/2000/svg" viewBox="0 0 512.005 512.005"><g fill="rgba(1,1,56,.7)"><path d="M10.669 234.672c11.969 0 17.521 3.865 24.542 8.75 8.042 5.604 18.063 12.583 36.729 12.583 18.677 0 28.708-6.979 36.76-12.583 7.031-4.885 12.583-8.75 24.563-8.75 12 0 17.563 3.865 24.604 8.76 8.052 5.604 18.083 12.573 36.771 12.573 18.677 0 28.708-6.969 36.771-12.573 7.031-4.896 12.594-8.76 24.594-8.76a10.66 10.66 0 0 0 10.667-10.667 10.66 10.66 0 0 0-10.667-10.667c-18.687 0-28.719 6.969-36.781 12.573-7.031 4.896-12.594 8.76-24.583 8.76-12 0-17.563-3.865-24.594-8.76-8.063-5.604-18.094-12.573-36.781-12.573-18.677 0-28.698 6.969-36.75 12.573-7.031 4.896-12.583 8.76-24.573 8.76-11.969 0-17.521-3.865-24.542-8.75-8.042-5.604-18.063-12.583-36.729-12.583A10.66 10.66 0 0 0 .003 224.005a10.66 10.66 0 0 0 10.666 10.667zm245.334 192c5.896 0 10.667-4.771 10.667-10.667s-4.771-10.667-10.667-10.667c-18.687 0-28.719 6.969-36.781 12.573-7.031 4.896-12.594 8.76-24.583 8.76-12 0-17.563-3.865-24.594-8.76-8.063-5.604-18.094-12.573-36.781-12.573-18.677 0-28.698 6.969-36.75 12.573-7.031 4.896-12.583 8.76-24.573 8.76-11.969 0-17.521-3.865-24.542-8.75-8.042-5.604-18.063-12.583-36.729-12.583-5.896 0-10.667 4.771-10.667 10.667s4.771 10.667 10.667 10.667c11.969 0 17.521 3.865 24.542 8.75 8.042 5.604 18.063 12.583 36.729 12.583 18.677 0 28.708-6.979 36.76-12.583 7.031-4.885 12.583-8.75 24.563-8.75 12 0 17.563 3.865 24.604 8.76 8.052 5.604 18.083 12.573 36.771 12.573 18.677 0 28.708-6.969 36.771-12.573 7.03-4.896 12.592-8.76 24.593-8.76zm-245.334-64c11.969 0 17.521 3.865 24.542 8.75 8.042 5.604 18.063 12.583 36.729 12.583a10.66 10.66 0 0 0 10.667-10.667 10.66 10.66 0 0 0-10.667-10.667c-11.969 0-17.521-3.865-24.542-8.75-8.042-5.604-18.063-12.583-36.729-12.583-5.896 0-10.667 4.771-10.667 10.667s4.771 10.667 10.667 10.667zm283.084-8.99c-9.052-5.781-19.313-12.344-37.75-12.344-18.687 0-28.719 6.969-36.781 12.573-7.031 4.896-12.594 8.76-24.583 8.76-12 0-17.563-3.865-24.604-8.76-8.052-5.604-18.083-12.573-36.771-12.573-5.896 0-10.667 4.771-10.667 10.667s4.771 10.667 10.667 10.667c12 0 17.563 3.865 24.594 8.76 8.063 5.604 18.094 12.573 36.781 12.573 18.677 0 28.708-6.969 36.771-12.573 7.031-4.896 12.594-8.76 24.594-8.76 12.198 0 18.406 3.969 26.25 8.99 9.052 5.781 19.313 12.344 37.75 12.344a10.66 10.66 0 0 0 10.667-10.667 10.66 10.66 0 0 0-10.667-10.667c-12.199 0-18.408-3.969-26.251-8.99zm-283.084-55.01c11.969 0 17.521 3.865 24.542 8.75 8.042 5.604 18.063 12.583 36.729 12.583 18.677 0 28.708-6.979 36.76-12.583 7.031-4.885 12.583-8.75 24.563-8.75a10.66 10.66 0 0 0 10.667-10.667 10.66 10.66 0 0 0-10.667-10.667c-18.677 0-28.698 6.969-36.75 12.573-7.031 4.896-12.583 8.76-24.573 8.76-11.969 0-17.521-3.865-24.542-8.75-8.042-5.604-18.063-12.583-36.729-12.583A10.66 10.66 0 0 0 .002 288.005a10.662 10.662 0 0 0 10.667 10.667zm367.927 0a10.66 10.66 0 0 0 10.667-10.667 10.66 10.66 0 0 0-10.667-10.667c-18.677 0-28.698 6.969-36.75 12.573-7.031 4.896-12.583 8.76-24.573 8.76-11.969 0-17.521-3.865-24.542-8.75-8.042-5.604-18.063-12.583-36.729-12.583-18.687 0-28.719 6.969-36.781 12.573-7.031 4.896-12.594 8.76-24.583 8.76-5.896 0-10.667 4.771-10.667 10.667s4.771 10.667 10.667 10.667c18.677 0 28.708-6.969 36.771-12.573 7.031-4.896 12.594-8.76 24.594-8.76 11.969 0 17.521 3.865 24.542 8.75 8.042 5.604 18.063 12.583 36.729 12.583 18.677 0 28.708-6.979 36.76-12.583 7.031-4.886 12.583-8.75 24.562-8.75z"/><path d="M327.159 2.766a10.641 10.641 0 0 0-14.313 0c-3.76 3.406-92.615 84.479-145.979 184.417-2.75 5.135-.865 11.521 4.229 14.344 4.344 2.417 8.198 4.833 12.042 7.542 1.615 1.188 3.281 2.344 5.24 3.25 1.49.698 3.042.906 4.781.99l3.833-.104a10.71 10.71 0 0 0 4.344-1.063c1.573-.76 3.125-1.823 5.719-3.74 9.385-6.531 23.573-16.396 48.948-16.396 17.646 0 32 14.354 32 32 0 9.385-4.146 16.292-7.625 20.427a10.686 10.686 0 0 0-2.167 9.51 10.664 10.664 0 0 0 6.469 7.292c8.365 3.26 14.677 7.302 21.125 11.823 1.615 1.188 3.292 2.344 5.25 3.26 1.5.698 3.115 1.021 4.833 1l3.76-.115a10.765 10.765 0 0 0 4.333-1.073c1.563-.76 3.094-1.813 5.688-3.729 9.385-6.531 23.552-16.396 48.927-16.396 17.646 0 32 14.354 32 32s-14.354 32-32 32c-.833 0-1.667.094-2.49.292-5.083 1.219-7.844 3.177-9.896 4.635-4.677 3.26-10.49 7.302-18.344 10.583a10.653 10.653 0 0 0-6.271 7.438 10.627 10.627 0 0 0 2.354 9.427c3.677 4.198 8.052 11.24 8.052 20.958 0 17.646-14.354 32-32 32-6.323 0-12.417-.74-19.167-2.313-3.271-.792-6.615 1.042-9.177 3.208-2.573 2.167-3.854 6.406-3.656 9.771 0 17.646-14.354 32-32 32-.833 0-1.667.094-2.49.292-4.729 1.135-7.406 2.854-9.927 4.646-5.198 3.604-12.385 8.198-21.885 11.635a10.671 10.671 0 0 0-1.948 19.125 191.627 191.627 0 0 0 100.25 28.302c105.865 0 192-86.135 192-192 .002-148.363-177.3-310.415-184.842-317.238z"/></g></svg>