<svg xmlns="http://www.w3.org/2000/svg" viewBox="0 0 512 512"><path d="M393.215 47.125a55.356 55.356 0 0 0 1.172-4.195c3.422-14.711 2.094-26.031-3.953-33.656C387.074 5.047 380.668 0 369.184 0c-.219 0-.438.016-.656.016V0H140.855v.055c-10.258.539-16.133 5.234-19.297 9.219-6.047 7.625-7.375 18.945-3.953 33.656a56.344 56.344 0 0 0 1.18 4.195C74.762 60.258 42.66 101.039 42.66 149.336v277.336h64V512h298.68v-85.328h64V149.336c0-48.297-32.109-89.078-76.125-102.211zm-24.031-25.788c1.093-.001 3.687.116 4.531 1.202.281.344 2.641 3.758-.109 15.547-5.359 23.031-34.984 36.898-58.891 44.477-13.219 4.188-26.219 6.945-36.25 8.688 21.359-36.367 69.5-69.914 90.719-69.914zM138.27 22.539c.859-1.086 3.453-1.203 4.531-1.203 21.234 0 69.375 33.555 90.734 69.922-9.945-1.727-22.797-4.453-35.93-8.594-24.039-7.578-53.836-21.469-59.219-44.578-2.749-11.789-.398-15.203-.116-15.547zm-31.61 382.805H63.996c5.891 0 10.664-4.781 10.664-10.672S69.887 384 63.996 384h42.664v21.344zm138.673 85.327H127.996v-320H106.66v192.001H63.996V149.336c0-22.797 8.875-44.227 24.992-60.344 11.281-11.281 25.172-19.008 40.305-22.625 4.562 5.648 10.289 10.906 17.172 15.742 11.648 8.188 26.695 15.219 44.727 20.906 22.883 7.211 44.586 10.406 54.141 11.562v376.094zM209.707 32.492a210.639 210.639 0 0 0-14.656-11.156h121.883a214.27 214.27 0 0 0-14.657 11.156c-20.609 17.109-36.891 36.766-46.281 55.562-9.391-18.797-25.672-38.453-46.289-55.562zm238.289 372.852H405.34V384h42.656c-5.891 0-10.656 4.781-10.656 10.672s4.766 10.656 10.656 10.672zm0-42.671H405.34v-192h-21.344v319.999H266.66V448c5.898 0 10.68-4.781 10.68-10.656 0-5.906-4.781-10.672-10.68-10.672V384c5.898 0 10.68-4.781 10.68-10.656 0-5.906-4.781-10.672-10.68-10.672V320c5.898 0 10.68-4.781 10.68-10.656 0-5.906-4.781-10.672-10.68-10.672V256c5.898 0 10.68-4.773 10.68-10.664s-4.781-10.664-10.68-10.664V192c5.898 0 10.68-4.773 10.68-10.664s-4.781-10.664-10.68-10.664v-56.094c9.555-1.156 31.258-4.352 54.148-11.562 18.031-5.688 33.062-12.719 44.719-20.906 6.875-4.836 12.625-10.094 17.172-15.742 15.141 3.617 29.016 11.344 40.297 22.625 16.125 16.117 25 37.547 25 60.344v213.336z"/></svg>