<svg xmlns="http://www.w3.org/2000/svg" viewBox="0 0 512 512"><path d="M464.932 213.02c7.439-41.37 5.48-95.992-12.892-117.327-17.325-20.121-66.121-38.28-79.168-42.879l-19.465-38.928C349.126 5.321 340.517 0 330.941 0H181.058c-9.575 0-18.185 5.321-22.467 13.885l-19.465 38.929c-13.047 4.598-61.843 22.758-79.168 42.879-18.372 21.335-20.331 75.957-12.891 117.327-2.235 9.554-11.871 55.029-3.075 94.92-.506 7.686-3.135 49.172-2.111 64.388.853 12.664 4.765 23.667 11.218 32.256l-.986 31.318a25.14 25.14 0 0 0 13.83 23.576c.1.051.203.099.306.146l62.016 27.899v7.91c0 9.136 7.432 16.568 16.568 16.568h222.33c9.136 0 16.568-7.432 16.568-16.568v-7.91l62.017-27.9a8.57 8.57 0 0 0 .306-.146c8.872-4.451 14.299-13.733 13.826-23.675l-1.56-30.472c6.796-8.693 10.919-19.965 11.796-33.001 1.024-15.216-1.605-56.702-2.111-64.388 8.798-39.892-.838-85.367-3.073-94.921zm-15.707-3.307l-43.596 18.11c-1.164-5.299-2.722-10.684-4.795-16.09v-32.646c.018-1.529.933-36.527 42.894-66.964 9.543 18.968 12.126 60.325 5.497 97.59zM433.201 99.962c-47.818 35.325-48.399 77.237-48.399 79.078v26.188H264.016v-79.486c44.363-10.122 91.537-46.563 104.797-57.365 16.158 5.741 47.75 18.568 64.388 31.585zm-46.116 206.81c3.494 11.296 10.447 40.02 2.312 69.478H264.016v-69.478h123.069zm-123.069-16.033v-69.478h123.185c9.785 29.31 3.234 58.145-.155 69.478h-123.03zm75.203-269.163c.022-.029.041-.059.063-.089l17.847 35.693c-13.82 11.041-55.044 42.094-93.113 52.073V89.4c11.512-7.462 46.121-31.47 75.203-67.824zM143.185 68.377c13.261 10.803 60.433 47.242 104.796 57.364v79.486H127.198V179.04c0-1.841-.581-43.753-48.398-79.077 16.63-13.005 48.225-25.838 64.385-31.586zM68.27 112.123c41.962 30.437 42.877 65.434 42.894 66.917v32.693a111.819 111.819 0 0 0-4.795 16.09l-43.596-18.11c-6.628-37.266-4.046-78.622 5.497-97.59zm-7.531 114.105l43.205 17.948c-2.032 25.58 4.103 46.902 6.709 54.571-1.408 4.089-3.866 12.095-5.672 22.561L59.19 302.286c-5.619-28.061-1.429-59.745 1.549-76.058zm-2.86 145.022c-.711-10.558.573-36.305 1.456-51.543l43.693 18.151c-.889 14.091.089 30.441 5.389 46.996-.887 5.076-3.12 18.581-4.07 30.878L79.285 405.32c-17.107-7.106-20.755-24.396-21.406-34.07zm15.128 73.831a9.092 9.092 0 0 1-4.874-8.489 5.47 5.47 0 0 0 .004-.128l.581-18.465c1.429.767 2.888 1.494 4.414 2.128l31.276 12.993c1.5 11.031 6.357 21.221 14.061 29.245a50.878 50.878 0 0 0 7.966 6.753l-53.428-24.037zm174.976 50.886H144.835a.535.535 0 0 1-.534-.534V476.73a50.796 50.796 0 0 0 10.362 1.066h93.321v18.171zm0-34.205h-93.321c-19.47 0-34.721-15.811-34.721-35.996 0-10.189 2.128-25.022 3.492-33.482h124.55v69.478zm0-85.511H122.602c-8.088-29.348-1.152-58.159 2.325-69.478h123.056v69.478zm0-85.512h-123.03c-3.392-11.343-9.939-40.173-.156-69.478h123.186v69.478zm0-181.487c-38.027-9.976-79.283-41.035-93.112-52.074l17.845-35.689c.022.029.041.06.064.089 29.082 36.354 63.692 60.362 75.203 67.823v19.851zm-59.011-93.219h134.053c-26.014 31.039-56.202 52.302-67.03 59.435-10.821-7.12-40.96-28.332-67.023-59.435zm178.727 479.399a.536.536 0 0 1-.534.534H264.016v-18.171h93.322c3.528 0 6.995-.365 10.361-1.066v18.703zm-10.361-33.67h-93.322v-69.478h124.55c1.364 8.456 3.492 23.279 3.492 33.482 0 20.185-15.251 35.996-34.72 35.996zm81.654-16.681l-53.432 24.038a50.96 50.96 0 0 0 7.969-6.754c7.703-8.024 12.562-18.214 14.061-29.245l31.275-12.992a49.941 49.941 0 0 0 4.061-1.931l.942 18.398a9.095 9.095 0 0 1-4.876 8.486zm15.127-73.831c-.65 9.673-4.298 26.964-21.405 34.07l-25.062 10.412c-.95-12.299-3.184-25.802-4.071-30.878 5.301-16.555 6.279-32.905 5.39-46.996l43.693-18.151c.883 15.237 2.167 40.982 1.455 51.543zm-1.309-68.964l-45.791 19.022c-1.805-10.467-4.264-18.473-5.672-22.561 2.606-7.669 8.74-28.992 6.708-54.571l43.206-17.948c2.978 16.314 7.168 47.998 1.549 76.058z"/></svg>