<svg xmlns="http://www.w3.org/2000/svg" viewBox="0 0 511.999 511.999"><path d="M367.505 41.894a26.346 26.346 0 0 0-.874-.864V8.017A8.017 8.017 0 0 0 358.614 0H153.386a8.017 8.017 0 0 0-8.017 8.017V41.03c-.297.28-.589.568-.874.864-4.778 4.959-7.268 11.479-7.014 18.359l16.446 444.026a8.016 8.016 0 0 0 8.011 7.721h76.96a8.017 8.017 0 0 0 8.017-8.017V161.936c0-5.01 4.076-9.086 9.086-9.086 5.01 0 9.086 4.076 9.086 9.086v342.046a8.017 8.017 0 0 0 8.017 8.017h76.96a8.016 8.016 0 0 0 8.011-7.721l16.443-444.025c.255-6.881-2.235-13.401-7.013-18.359zm-60.734-25.861h43.825v18.2a25.672 25.672 0 0 0-1.18-.029h-42.645V16.033zm-145.369 0h43.825v18.171h-42.645c-.396 0-.788.012-1.18.029v-18.2zm-7.899 43.627a9.012 9.012 0 0 1 2.536-6.641 9.008 9.008 0 0 1 6.543-2.781h25.542v9.086c0 18.689-14.836 33.97-33.348 34.704l-1.273-34.368zm94.479 78.477c-9.93 3.354-17.102 12.752-17.102 23.8v334.029h-61.218l-14.293-385.921c27.078-1.047 48.789-23.392 48.789-50.722v-9.086h43.825v87.9zM221.26 34.205V16.033h69.478v18.171H221.26zm121.077 461.762h-61.219v-334.03c0-11.048-7.172-20.446-17.102-23.8V50.238h43.825v9.086c0 27.331 21.71 49.675 48.789 50.722l-14.293 385.921zm14.885-401.94c-18.511-.733-33.348-16.015-33.348-34.704v-9.086h25.542c2.491 0 4.814.988 6.543 2.781a9.012 9.012 0 0 1 2.536 6.641l-1.273 34.368z"/></svg>