<svg xmlns="http://www.w3.org/2000/svg" viewBox="0 0 59.417 59.417"><path d="M26.742 39.361a4.968 4.968 0 0 0 .902-3.717l-.155-.988a4.963 4.963 0 0 0-2-3.261 4.96 4.96 0 0 0-3.57-.91c.457-2.575 3.969-7.32 6.688-10.26 1.475-1.568 2.219-3.582 2.15-5.826-.05-1.647-1.009-3.075-2.501-3.726-1.521-.663-3.253-.386-4.521.723-.492.43-.989.941-1.611 1.656-.432.496-.582.76-.757 1.066-.162.283-.358.627-.938 1.394l-.73-4.652c-.521-3.313-2.159-6.194-4.611-8.114a12.778 12.778 0 0 0-.402-.302A9.183 9.183 0 0 0 7.163.961c-2.474.597-4.46 2.147-5.597 4.364C-.74 9.822.173 15.468.203 15.612c.327 4.619 2.878 14.639 3.712 17.823a4.96 4.96 0 0 0-2.197 1.698 4.968 4.968 0 0 0-.902 3.717l.155.988a5.01 5.01 0 0 0 5.717 4.163l16.794-2.641a4.969 4.969 0 0 0 3.26-1.999zM3.345 6.238c.867-1.691 2.389-2.875 4.285-3.332a7.125 7.125 0 0 1 1.677-.199 7.21 7.21 0 0 1 4.21 1.362h.001c.112.081.224.166.336.253 2.052 1.606 3.426 4.039 3.867 6.849l.797 5.072a1.818 1.818 0 0 0 1.347 1.479 1.806 1.806 0 0 0 1.884-.645c.87-1.122 1.149-1.61 1.354-1.966.146-.257.228-.398.53-.746.56-.644.997-1.095 1.418-1.463.689-.604 1.591-.751 2.405-.395.788.344 1.274 1.074 1.301 1.953.053 1.727-.488 3.205-1.613 4.4-1.251 1.352-7.011 7.792-7.256 11.929l-14.02 2.205c-.799-3.058-3.358-13.116-3.681-17.618-.01-.052-.84-5.241 1.158-9.138zm21.78 31.945a2.977 2.977 0 0 1-1.955 1.2L6.376 42.025a3.007 3.007 0 0 1-3.43-2.498l-.155-.988a2.979 2.979 0 0 1 .542-2.229 2.965 2.965 0 0 1 1.626-1.115l17.221-2.708-.006-.026c.125-.016.251-.029.376-.029.628 0 1.241.199 1.763.579a2.977 2.977 0 0 1 1.2 1.955l.155.988a2.975 2.975 0 0 1-.543 2.229z"/><path d="M59.13 22.199c-.534-2.435-2.061-4.44-4.299-5.647a9.185 9.185 0 0 0-7.652-.485c-.154.06-.311.123-.466.19-2.859 1.23-5.178 3.598-6.527 6.668l-1.894 4.312c-.364-.89-.466-1.272-.551-1.588-.091-.34-.169-.633-.459-1.223-.418-.848-.769-1.468-1.136-2.012-.943-1.396-2.551-2.104-4.187-1.853-1.61.248-2.901 1.384-3.37 2.965-.638 2.153-.432 4.29.59 6.173 1.883 3.542 4.069 9.027 3.852 11.634a4.962 4.962 0 0 0-3.685-.031 4.962 4.962 0 0 0-2.764 2.643l-.403.916a4.961 4.961 0 0 0-.076 3.824 4.966 4.966 0 0 0 2.644 2.765l15.564 6.838a4.97 4.97 0 0 0 3.824.076 4.962 4.962 0 0 0 2.764-2.643l.403-.916a4.961 4.961 0 0 0 .076-3.824 4.971 4.971 0 0 0-1.691-2.202c1.617-2.865 6.635-11.891 8.101-16.198.101-.22 2.423-5.447 1.342-10.382zm-9.658 31.802l-.403.916a2.976 2.976 0 0 1-1.659 1.584 2.983 2.983 0 0 1-2.293-.044l-15.564-6.838a2.976 2.976 0 0 1-1.585-1.66 2.978 2.978 0 0 1 .044-2.293l.403-.916a2.976 2.976 0 0 1 1.659-1.584 3.016 3.016 0 0 1 1.097-.208c.378 0 .752.08 1.11.225l-.011.021 15.952 7.008a2.98 2.98 0 0 1 1.25 3.789zm6.46-22.155c-1.433 4.197-6.469 13.258-8.02 16.009l-12.993-5.708c.819-4.063-3.108-11.76-3.977-13.394-.778-1.435-.925-3.002-.434-4.659.25-.844.906-1.426 1.757-1.557.875-.14 1.711.235 2.225.996.314.466.623 1.014.998 1.776.203.413.245.571.322.857.105.396.251.939.806 2.247.283.666.934 1.1 1.658 1.104h.013c.722 0 1.375-.426 1.667-1.087l2.063-4.7c1.146-2.605 3.094-4.606 5.488-5.637.131-.056.26-.109.389-.158a7.184 7.184 0 0 1 5.988.377c1.718.926 2.888 2.459 3.295 4.315.937 4.278-1.189 9.084-1.245 9.219z"/></svg>