<svg xmlns="http://www.w3.org/2000/svg" viewBox="0 0 481.758 481.758"><path d="M479.832 173.064c-5.238-10.529-51.881-103.35-76.299-119.953-23.49-15.975-81.035-40.607-83.474-41.648l-2.809-1.199-3 .575c-.486.093-48.893 9.319-73.372 9.319-24.46 0-72.886-9.226-73.372-9.319l-3-.575-2.809 1.199c-2.439 1.041-59.983 25.673-83.474 41.647C53.807 69.715 7.164 162.535 1.926 173.064L0 176.935l1.5 4.054c.628 1.698 16.181 41.7 84.724 50.834l5.941.792 21.049-29.278c9.468 54.128-4.04 181.588-20.761 242.943l-2.404 8.822 8.573 3.182c1.453.54 36.8 13.209 142.256 13.209 105.457 0 140.803-12.669 142.256-13.209l8.573-3.182-2.404-8.822c-16.721-61.357-30.229-188.816-20.761-242.943l21.049 29.277 5.941-.792c68.543-9.134 84.096-49.135 84.724-50.834l1.501-4.054-1.925-3.87zM295.906 34.326c-9.83 11.487-27.107 24.458-55.027 24.458-27.927 0-45.206-12.978-55.031-24.459 16.873 2.703 39.72 5.833 55.031 5.833 15.31 0 38.154-3.13 55.027-5.832zm153.741 154.763c-8.602 7.68-24.27 17.473-50.885 22.019l-35.354-49.177-7.459 14.588c-7.189 14.061-14.467 47.952-8.305 129.557 3.671 48.618 11.303 100.419 19.876 135.773-15.403 3.477-53.097 9.644-126.641 9.644-66.914 0-108.029-5.398-126.654-9.591 8.579-35.354 16.217-87.185 19.89-135.826 6.162-81.604-1.115-115.496-8.304-129.557l-7.459-14.588-35.358 49.179c-40.559-6.89-56.063-25.702-60.913-33.626 19.342-38.317 52.823-97.93 67.389-107.835 16.771-11.405 54.511-28.546 71.503-36.05a94.892 94.892 0 0 0 13.757 18.094c12.016 12.358 33.245 27.091 66.148 27.091s54.133-14.732 66.148-27.091a94.882 94.882 0 0 0 13.758-18.094c16.991 7.504 54.73 24.646 71.502 36.051 14.556 9.897 48.027 69.486 67.375 107.807-1.741 2.799-4.872 7.039-10.014 11.632z"/></svg>