<svg xmlns="http://www.w3.org/2000/svg" viewBox="0 0 480.06 480.06"><path d="M459.535 163.131l-3.208-8.936-9.09 2.74c-20.555 6.194-40.773 9.336-60.096 9.336-30.886 0-54.38-8.105-68.65-14.904-15.542-7.405-23.87-14.928-23.925-14.978l-4.685-4.341-5.907 2.424c-115.295 47.299-180.919 61.314-220.25 67.74-26.249 4.29-45.621 22.249-56.021 51.936C.27 275.366.065 295.212.06 296.046L0 306.107h.061v41.904H480.06v-51.904c0-74.935-19.687-130.641-20.525-132.976zm.4 122.976h-72.121c3.052-49.108 28.504-78.338 57.089-102.445 5.308 19.197 13.9 56.814 15.032 102.445zm-173.85-130.892c4.628 3.473 12.337 8.661 22.922 13.784 29.497 14.275 58.771 17.273 78.135 17.273 8.962 0 18.081-.611 27.31-1.82-7.81 7.852-15.213 16.467-21.753 26.171-15.187 22.534-23.364 47.32-24.913 75.485h-248.39c2.734-29.652 2.847-55.961.351-74.937 13.105-3.207 27.783-7.17 44.252-12.135v35.834h20v-42.084a1211.974 1211.974 0 0 0 24.068-8.064v35.195h20v-42.301a1538.638 1538.638 0 0 0 24.067-8.99v38.271h20v-46.075a1841.97 1841.97 0 0 0 13.951-5.607zM26.738 260.311c7.967-22.395 21.496-35.302 40.212-38.36a669.413 669.413 0 0 0 33.211-6.273c2.074 17.619 1.785 42.688-.857 70.43H20.842c.819-6.788 2.489-16.219 5.896-25.797zm433.322 67.701H20.061v-21.904H460.06v21.904z"/></svg>