<svg xmlns="http://www.w3.org/2000/svg" viewBox="0 0 481.268 481.268"><path d="M471.268 159.142c-47.282 0-77.771 12.868-88.5 18.277l-59.342-19.556-31.986-34.807-7.179 9.919c-.559.772-56.324 77.475-95.888 102.055-18.884 11.732-52.374 17.681-99.54 17.681-12.76 0-24.077-.409-33.17-.738-5.737-.208-10.269-.372-13.575-.372-16.511 0-26.86 15.268-32.636 28.076-5.393 11.959-7.874 23.771-7.977 24.268L0 311.066l6.319 3.599c3.123 1.777 77.637 43.546 178.23 43.546 38.796 0 59.895-6.826 84.325-14.729 16.236-5.253 34.306-11.095 61.051-15.875v26.185h151.343v-194.65h-10zm-149.384 19.272l48.585 16.011c-6.347 14.171-20.361 39.536-39.336 39.536-3.059 0-6.273-.675-9.554-2.004-8.736-3.541-11.002-8.405-11.945-11.757-3.523-12.502 5.556-31.027 12.25-41.786zm-59.165 146.038c-23.761 7.688-42.529 13.759-78.17 13.759-78.455 0-141.559-27.588-161.632-37.464 4.108-13.752 11.872-29.146 19.171-29.146 2.945 0 7.316.158 12.852.358 8.767.317 20.771.752 33.894.752 51.67 0 87.683-6.768 110.095-20.692 34.334-21.331 77.277-75.226 94.235-97.528l11.98 13.035c-2.284 3.658-5.104 8.539-7.738 14.104-8.067 17.037-10.434 31.825-7.033 43.951 2.209 7.879 8.114 18.596 23.696 24.911 5.678 2.302 11.42 3.469 17.065 3.469 35.476 0 55.483-45.133 60.72-58.776 11.188-5.763 35.946-14.347 69.415-15.822v118.509c-53.656.343-92.079 3.448-121.373 7.815a9.972 9.972 0 0 0-2.939.447c-33.82 5.243-55.235 12.17-74.238 18.318zm87.206 9.339v-9.307c27.511-3.713 63.049-6.297 111.343-6.61v15.917H349.925z"/></svg>