<svg xmlns="http://www.w3.org/2000/svg" viewBox="0 0 460.084 460.084"><path d="M459.728 305.743L399.612 86.299a10 10 0 0 0-12.288-7.003c-102.894 28.193-211.669 28.193-314.563 0a9.997 9.997 0 0 0-12.287 7.003L.356 305.743a9.999 9.999 0 0 0 4.305 11.097c60.058 37.928 129.357 60.158 200.405 64.284 4.732.287 8.977-2.787 10.225-7.341l14.751-53.844 14.752 53.845a9.999 9.999 0 0 0 10.225 7.34c71.048-4.126 140.347-26.356 200.404-64.284a10 10 0 0 0 4.305-11.097zM77.142 101.15a615.648 615.648 0 0 0 305.802 0l5.542 20.232a630.958 630.958 0 0 1-316.887 0l5.543-20.232zm-10.827 39.521c2.754.716 5.513 1.407 8.274 2.087L29.241 308.303a396.748 396.748 0 0 1-7.62-4.488l44.694-163.144zm173.372 138.781a10 10 0 0 0-19.29.001l-22.234 81.156c-52.601-4.126-104.012-18.656-150.87-42.51l46.803-170.857a650.902 650.902 0 0 0 135.945 14.372c45.578 0 91.152-4.805 135.943-14.372l46.803 170.857c-46.857 23.853-98.267 38.383-150.868 42.509l-22.232-81.156zm191.156 28.852l-45.349-165.546a641.843 641.843 0 0 0 8.276-2.087l44.693 163.144a398.945 398.945 0 0 1-7.62 4.489z"/></svg>