<svg xmlns="http://www.w3.org/2000/svg" viewBox="0 0 434.268 434.268"><path d="M162.389 176.486c-21.546-5.984-42.798-8.893-64.969-8.893-15.244 0-31.05 1.445-46.979 4.296a6.002 6.002 0 0 0-4.875 5.003c-.293 1.924-6.917 47.419 15.916 73.994 10.466 12.182 25.26 18.358 43.965 18.358h.088c46.796 0 64.079-39.125 70.603-53.962.904-1.926 6.86-15.436 1.632-26.76-1.909-4.128-6.134-9.571-15.381-12.036zm-93.58 11.762c-.37 5.516-.48 10.707-.326 15.43a5.999 5.999 0 0 1-6.001 6.195 5.999 5.999 0 0 1-5.993-5.805c-.166-5.119-.05-10.713.348-16.624.222-3.306 3.079-5.814 6.389-5.585a6 6 0 0 1 5.583 6.389z"/><path d="M429.608 150.648c-58.881-13.516-116.073-12.331-185.439 3.838l-1.437.335c-8.081 1.89-18.707 4.149-25.599 4.149-7.008 0-17.518-2.26-25.599-4.149l-1.437-.335C120.73 138.317 63.54 137.133 4.659 150.648a6 6 0 0 0-4.59 6.753l4.208 27.566a5.997 5.997 0 0 0 8.042 4.711c2.39-.897 4.281-.903 5.622-.015 1.589 1.054 2.685 3.465 2.791 6.143 1.358 34.088 7.998 57.215 20.895 72.783 13.53 16.333 34.279 24.29 63.433 24.323h.126c57.981-.001 80.766-41.6 95.846-69.134 2.096-3.826 4.075-7.439 5.986-10.662a5.94 5.94 0 0 0 .209-.385c3.354-6.729 7.162-9.121 9.637-9.121l.068.001a13.47 13.47 0 0 0 .402 0l.068-.001c2.475 0 6.283 2.392 9.637 9.121.065.131.135.26.209.385 1.911 3.223 3.891 6.836 5.986 10.662 15.081 27.535 37.857 69.139 95.847 69.134h.126c29.152-.033 49.901-7.99 63.432-24.323 12.896-15.568 19.536-38.695 20.895-72.783.106-2.678 1.202-5.089 2.791-6.143 1.341-.889 3.232-.883 5.622.015a5.996 5.996 0 0 0 8.042-4.711l4.208-27.566a5.998 5.998 0 0 0-4.589-6.753zm-10.544 26.369c-3.403-.074-6.619.821-9.372 2.646-4.84 3.21-7.886 9.066-8.148 15.665-1.249 31.321-7.015 52.168-18.146 65.606-11.267 13.601-28.49 19.949-54.203 19.978h-.115c-22.49 0-40.778-6.873-55.903-21.01-13.267-12.4-21.847-28.066-29.417-41.889-2.107-3.848-4.1-7.485-6.08-10.834-7.169-14.223-16.739-15.624-20.523-15.566h-.008c-3.78-.053-13.377 1.316-20.561 15.566-1.98 3.349-3.973 6.986-6.08 10.834-7.57 13.822-16.15 29.488-29.417 41.889-15.15 14.161-33.493 21.035-56.018 21.01-25.714-.029-42.938-6.378-54.204-19.978-11.131-13.438-16.896-34.284-18.146-65.606-.263-6.599-3.309-12.455-8.148-15.665-2.753-1.826-5.961-2.723-9.372-2.646l-2.424-15.879c55.116-11.79 109.244-10.198 174.595 5.034l1.429.334c8.655 2.023 21.409 4.409 28.327 4.409 7.301 0 19.68-2.386 28.335-4.409l1.429-.334c65.351-15.232 119.477-16.824 174.595-5.034l-2.425 15.879z"/><path d="M271.938 176.47c-9.307 2.482-13.532 7.924-15.44 12.053-5.228 11.323.728 24.834 1.632 26.76 6.523 14.837 23.807 53.962 70.603 53.962h.082c18.711 0 33.505-6.177 43.971-18.358 22.833-26.575 16.209-72.07 15.916-73.994a6.002 6.002 0 0 0-4.875-5.003c-15.93-2.851-31.735-4.296-46.979-4.296-22.171-.001-43.423 2.907-64.91 8.876zm56.795 86.772v.002-.002z"/></svg>