<svg xmlns="http://www.w3.org/2000/svg" viewBox="0 0 457.468 457.468"><path d="M428.734 366.296v-60.829c0-101.562-76.095-185.682-174.265-198.348l5.094-7.215 13.613-4.227a7.999 7.999 0 0 0 5.627-7.74l-.178-14.258 8.521-11.43a7.998 7.998 0 0 0 0-9.564l-8.521-11.429.178-14.257a7.998 7.998 0 0 0-5.627-7.74l-13.613-4.228-8.222-11.646a8 8 0 0 0-9.111-2.96l-13.496 4.591L215.238.425a8 8 0 0 0-9.111 2.96l-8.222 11.646-13.613 4.227a7.999 7.999 0 0 0-5.627 7.74l.178 14.258-8.521 11.429a7.998 7.998 0 0 0 0 9.564l8.521 11.43-.178 14.257a7.998 7.998 0 0 0 5.627 7.74l13.613 4.228 5.094 7.215c-98.17 12.667-174.265 96.787-174.265 198.348v60.829c-14.232 7.296-24 22.11-24 39.171v8c0 24.262 19.738 44 44 44h360c24.262 0 44-19.738 44-44v-8c0-17.061-9.768-31.875-24-39.171zm-16-60.828v56.19a44.076 44.076 0 0 0-4-.19h-28v-56c0-53.004-15.547-102.925-43.776-140.564-5.078-6.771-10.464-12.992-16.108-18.667 54.891 31.877 91.884 91.313 91.884 159.231zm-90.908-90a8 8 0 0 0-15.492 4.001c6.804 26.343 10.4 56.081 10.4 85.999v56h-32v-56c0-51.92-5.078-100.824-14.298-137.705-3.491-13.963-7.405-25.591-11.724-34.881 13.015 10.139 24.969 26.76 34.701 48.815a8.001 8.001 0 0 0 14.639-6.46c-6.136-13.904-13.191-25.947-20.936-35.931 45.856 29.611 77.618 92.959 77.618 166.161v56h-32v-56c0-31.694-3.67-61.974-10.908-89.999zm-93.092 82a8 8 0 0 0-8 8v56h-32v-56c0-100.221 17.922-160.788 32-178.519v138.519a8 8 0 0 0 16 0V126.949c14.078 17.731 32 78.298 32 178.519v56h-32v-56a8 8 0 0 0-8-8zm-94.421-27.788c-4.393-.322-8.238 2.992-8.558 7.399a393.492 393.492 0 0 0-1.021 28.389v56h-32v-56c0-73.086 31.661-136.353 77.4-166.023-17.428 22.586-31.149 55.432-38.869 95.51a8 8 0 0 0 15.711 3.027c9.509-49.366 28.77-87.251 51.805-105.154-4.329 9.299-8.251 20.946-11.749 34.936-9.22 36.88-14.298 85.785-14.298 137.705v56h-32v-56c0-9.121.329-18.282.979-27.23a8 8 0 0 0-7.4-8.559zm60.425-187.513l.137-10.997a7.996 7.996 0 0 0-1.586-4.882l-6.576-8.82 6.576-8.819a7.998 7.998 0 0 0 1.586-4.882l-.137-10.998 10.507-3.263a7.999 7.999 0 0 0 4.163-3.026l6.34-8.979 10.41 3.541a8.001 8.001 0 0 0 5.152 0l10.41-3.541 6.34 8.979a8.004 8.004 0 0 0 4.163 3.026l10.507 3.263-.137 10.997a7.998 7.998 0 0 0 1.586 4.882l6.576 8.819-6.576 8.82a7.998 7.998 0 0 0-1.586 4.882l.137 10.997-10.507 3.263a8.004 8.004 0 0 0-4.163 3.026l-6.34 8.979-10.41-3.541a8.003 8.003 0 0 0-5.152 0l-10.41 3.541-6.34-8.979a7.994 7.994 0 0 0-4.163-3.026l-10.507-3.262zM44.734 305.468c0-67.918 36.993-127.354 91.885-159.231-5.644 5.675-11.03 11.896-16.108 18.667-28.229 37.64-43.776 87.56-43.776 140.564v56h-28c-1.349 0-2.682.071-4 .19v-56.19zm392 108c0 15.439-12.561 28-28 28h-360c-15.439 0-28-12.561-28-28v-8c0-15.439 12.561-28 28-28h360c15.439 0 28 12.561 28 28v8z"/></svg>