<?xml version="1.0" encoding="iso-8859-1"?>
<!-- Generator: Adobe Illustrator 19.0.0, SVG Export Plug-In . SVG Version: 6.00 Build 0)  -->
<svg version="1.1" id="Layer_1" xmlns="http://www.w3.org/2000/svg" xmlns:xlink="http://www.w3.org/1999/xlink" x="0px" y="0px"
	 viewBox="0 0 512 512" style="enable-background:new 0 0 512 512;" xml:space="preserve">
<g transform="translate(1 1)">
	<g>
		<path d="M374.467,357.4c-35.172,0-68.274-20.561-84.603-51.231c4.71-0.312,7.803-3.631,7.803-8.503V161.133
			c0-5.12-3.413-8.533-8.533-8.533H280.6v-17.067c14.507,0,25.6-11.093,25.6-25.6V24.6c0-14.507-11.093-25.6-25.6-25.6H58.733
			c-14.507,0-25.6,11.093-25.6,25.6v85.333c0,14.507,11.093,25.6,25.6,25.6v34.987c0.853,19.627-1.707,39.253-5.12,58.027v1.707
			c-6.75,32.906-11.825,66.439-15.238,100.185c-0.043,0.169-0.088,0.337-0.122,0.509c-3.413,30.72-5.12,63.147-5.12,94.72
			c0,0.34,0.017,0.672,0.047,0.997c-0.018,2.513-0.047,5.026-0.047,7.536v59.733c0,9.387,7.68,17.067,17.067,17.067h128
			c9.387,0,17.067-7.68,17.067-17.067V480.28l52.907,16.213C280.6,505.88,313.88,511,347.16,511h121.173
			c5.12,0,8.533-3.413,8.533-8.533v-34.133v-5.12C476.867,403.48,431.64,357.4,374.467,357.4z M383,374.893
			c42.574,4.246,75.156,39.993,76.733,84.908H383V374.893z M189.293,289.133l-43.52-24.747l53.76-27.307
			c3.413-1.707,5.12-4.267,5.12-7.68s-2.56-5.973-5.12-7.68l-53.76-27.307l43.52-24.747h23.04h59.733h8.533v17.067H255
			c-5.12,0-8.533,3.413-8.533,8.533c0,4.267,3.413,8.533,8.533,8.533h25.6v17.067h-17.067c-5.12,0-8.533,3.413-8.533,8.533
			s3.413,8.533,8.533,8.533H280.6V255H255c-5.12,0-8.533,3.413-8.533,8.533s3.413,8.533,8.533,8.533h25.6v17.067h-3.413h-64.853
			H189.293z M50.2,109.933v-25.6h25.6c5.12,0,8.533-3.413,8.533-8.533s-3.413-8.533-8.533-8.533H50.2V50.2h42.667
			c5.12,0,8.533-3.413,8.533-8.533s-3.413-8.533-8.533-8.533H50.2V24.6c0-5.12,3.413-8.533,8.533-8.533H280.6
			c5.12,0,8.533,3.413,8.533,8.533v25.6h-25.6c-5.12,0-8.533,3.413-8.533,8.533s3.413,8.533,8.533,8.533h25.6v17.067h-42.667
			c-5.12,0-8.533,3.413-8.533,8.533c0,5.12,3.413,8.533,8.533,8.533h42.667v8.533c0,5.12-3.413,8.533-8.533,8.533h-8.533h-204.8
			h-8.533C53.613,118.467,50.2,115.053,50.2,109.933z M69.827,232.813v-1.707c4.267-20.48,5.973-40.96,5.973-61.44v-34.133h187.733
			V152.6h-51.2h-25.6c-1.707,0-2.56,0-4.267,0.853l-59.733,34.133c-2.56,1.707-4.267,4.267-4.267,7.68s1.707,5.973,5.12,7.68
			l52.907,26.453l-52.907,26.453c-3.413,1.707-5.12,5.12-5.12,7.68s1.707,5.973,4.267,7.68l59.733,34.133
			c1.707,0.853,2.56,0.853,4.267,0.853h25.6h58.88c15.968,37.524,53.598,64.586,94.72,67.916v85.674
			c-38.956-0.098-77.073-6.923-114.347-21.324l-56.487-18.571c-3.019-53.662-47.849-96.629-102.233-96.629H56.249
			C59.513,292.995,64.057,262.817,69.827,232.813z M50.865,397.864c0.057-1.524,0.121-3.05,0.18-4.576
			c0.715-17.669,1.893-35.325,3.508-52.955h38.314c44.373,0,81.067,34.133,85.333,76.8H50.363
			C50.473,410.709,50.634,404.286,50.865,397.864z M347.16,493.933c-31.573,0-63.147-5.12-93.867-14.507l-64-19.627
			c-2.56,0-5.12,0-7.68,1.707c-1.707,1.707-3.413,4.267-3.413,6.827v25.6h-128V434.2h134.827l60.587,20.48
			c39.253,14.507,79.36,22.187,121.173,22.187h7.68H459.8v17.067H347.16z"/>
	</g>
</g>
<g>
</g>
<g>
</g>
<g>
</g>
<g>
</g>
<g>
</g>
<g>
</g>
<g>
</g>
<g>
</g>
<g>
</g>
<g>
</g>
<g>
</g>
<g>
</g>
<g>
</g>
<g>
</g>
<g>
</g>
</svg>
