<?xml version="1.0" encoding="iso-8859-1"?>
<!-- Generator: Adobe Illustrator 16.0.0, SVG Export Plug-In . SVG Version: 6.00 Build 0)  -->
<!DOCTYPE svg PUBLIC "-//W3C//DTD SVG 1.1//EN" "http://www.w3.org/Graphics/SVG/1.1/DTD/svg11.dtd">
<svg version="1.1" id="Capa_1" xmlns="http://www.w3.org/2000/svg" xmlns:xlink="http://www.w3.org/1999/xlink" x="0px" y="0px"
	 width="349.678px" height="349.678px" viewBox="0 0 349.678 349.678" style="enable-background:new 0 0 349.678 349.678;"
	 xml:space="preserve">
<g>
	<g>
		<g>
			<path fill="rgba(1,1,56,.7)" d="M203.307,210.517l-2.407-1.033V26.061C200.9,11.688,189.214,0,174.845,0c-14.37,0-26.058,11.688-26.058,26.061v183.422
				l-2.399,1.033c-26.748,11.433-44.039,37.613-44.039,66.677c0,39.974,32.528,72.484,72.49,72.484
				c39.974,0,72.49-32.511,72.49-72.484C247.334,248.13,230.059,221.949,203.307,210.517z M174.845,321.317
				c-24.437,0-44.247-19.811-44.247-44.232c0-21.593,15.52-39.355,35.969-43.258V86.319c0-4.576,3.708-8.278,8.278-8.278
				c4.563,0,8.28,3.702,8.28,8.278v147.508c20.446,3.896,35.969,21.665,35.969,43.246
				C219.083,301.513,199.279,321.317,174.845,321.317z"/>
		</g>
	</g>
</g>
<g>
</g>
<g>
</g>
<g>
</g>
<g>
</g>
<g>
</g>
<g>
</g>
<g>
</g>
<g>
</g>
<g>
</g>
<g>
</g>
<g>
</g>
<g>
</g>
<g>
</g>
<g>
</g>
<g>
</g>
</svg>
