<?xml version="1.0" encoding="iso-8859-1"?>
<!-- Generator: Adobe Illustrator 18.0.0, SVG Export Plug-In . SVG Version: 6.00 Build 0)  -->
<!DOCTYPE svg PUBLIC "-//W3C//DTD SVG 1.1//EN" "http://www.w3.org/Graphics/SVG/1.1/DTD/svg11.dtd">
<svg version="1.1" id="Capa_1" xmlns="http://www.w3.org/2000/svg" xmlns:xlink="http://www.w3.org/1999/xlink" x="0px" y="0px"
	 viewBox="0 0 59.417 59.417" style="enable-background:new 0 0 59.417 59.417;" xml:space="preserve">
<g>
	<path d="M26.742,39.361c0.788-1.082,1.108-2.402,0.902-3.717l-0.155-0.988c-0.207-1.315-0.917-2.473-2-3.261
		c-1.041-0.758-2.301-1.07-3.57-0.91c0.457-2.575,3.969-7.32,6.688-10.26c1.475-1.568,2.219-3.582,2.15-5.826
		c-0.05-1.647-1.009-3.075-2.501-3.726c-1.521-0.663-3.253-0.386-4.521,0.723c-0.492,0.43-0.989,0.941-1.611,1.656
		c-0.432,0.496-0.582,0.76-0.757,1.066c-0.162,0.283-0.358,0.627-0.938,1.394l-0.73-4.652c-0.521-3.313-2.159-6.194-4.611-8.114
		c-0.134-0.105-0.269-0.206-0.402-0.302c-2.181-1.57-4.919-2.109-7.523-1.483C4.689,1.558,2.703,3.108,1.566,5.325
		C-0.74,9.822,0.173,15.468,0.203,15.612c0.327,4.619,2.878,14.639,3.712,17.823c-0.869,0.344-1.631,0.92-2.197,1.698
		c-0.788,1.082-1.108,2.402-0.902,3.717l0.155,0.988c0.388,2.462,2.52,4.224,4.938,4.224c0.257,0,0.518-0.02,0.779-0.061
		l16.794-2.641C24.795,41.153,25.954,40.443,26.742,39.361z M3.345,6.238C4.212,4.547,5.734,3.363,7.63,2.906
		c0.554-0.134,1.116-0.199,1.677-0.199c1.493,0,2.967,0.468,4.21,1.362l0.001,0c0.112,0.081,0.224,0.166,0.336,0.253
		c2.052,1.606,3.426,4.039,3.867,6.849l0.797,5.072c0.113,0.718,0.642,1.299,1.347,1.479c0.704,0.182,1.441-0.073,1.884-0.645
		c0.87-1.122,1.149-1.61,1.354-1.966c0.146-0.257,0.228-0.398,0.53-0.746c0.56-0.644,0.997-1.095,1.418-1.463
		c0.689-0.604,1.591-0.751,2.405-0.395c0.788,0.344,1.274,1.074,1.301,1.953c0.053,1.727-0.488,3.205-1.613,4.4
		c-1.251,1.352-7.011,7.792-7.256,11.929l-14.02,2.205c-0.799-3.058-3.358-13.116-3.681-17.618
		C2.177,15.324,1.347,10.135,3.345,6.238z M25.125,38.183c-0.474,0.65-1.168,1.077-1.955,1.2L6.376,42.025
		c-1.634,0.252-3.174-0.864-3.43-2.498l-0.155-0.988C2.667,37.752,2.86,36.96,3.333,36.31c0.405-0.557,0.977-0.936,1.626-1.115
		l17.221-2.708l-0.006-0.026c0.125-0.016,0.251-0.029,0.376-0.029c0.628,0,1.241,0.199,1.763,0.579
		c0.65,0.474,1.077,1.168,1.2,1.955l0.155,0.988C25.792,36.741,25.599,37.533,25.125,38.183z"/>
	<path d="M59.13,22.199c-0.534-2.435-2.061-4.44-4.299-5.647c-2.353-1.269-5.142-1.446-7.652-0.485
		c-0.154,0.06-0.311,0.123-0.466,0.19c-2.859,1.23-5.178,3.598-6.527,6.668l-1.894,4.312c-0.364-0.89-0.466-1.272-0.551-1.588
		c-0.091-0.34-0.169-0.633-0.459-1.223c-0.418-0.848-0.769-1.468-1.136-2.012c-0.943-1.396-2.551-2.104-4.187-1.853
		c-1.61,0.248-2.901,1.384-3.37,2.965c-0.638,2.153-0.432,4.29,0.59,6.173c1.883,3.542,4.069,9.027,3.852,11.634
		c-1.184-0.479-2.484-0.498-3.685-0.031c-1.247,0.486-2.229,1.424-2.764,2.643l-0.403,0.916c-0.535,1.219-0.563,2.577-0.076,3.824
		c0.486,1.248,1.425,2.229,2.644,2.765l15.564,6.838c0.641,0.281,1.319,0.422,2,0.422c0.615,0,1.232-0.115,1.824-0.346
		c1.247-0.486,2.229-1.424,2.764-2.643l0.403-0.916c0.535-1.219,0.563-2.577,0.076-3.824c-0.349-0.896-0.939-1.647-1.691-2.202
		c1.617-2.865,6.635-11.891,8.101-16.198C57.889,32.361,60.211,27.134,59.13,22.199z M49.472,54.001l-0.403,0.916
		c-0.32,0.729-0.909,1.292-1.659,1.584c-0.75,0.292-1.563,0.275-2.293-0.044l-15.564-6.838c-0.73-0.32-1.293-0.91-1.585-1.66
		c-0.292-0.75-0.276-1.564,0.044-2.293l0.403-0.916c0.32-0.729,0.909-1.292,1.659-1.584c0.356-0.139,0.728-0.208,1.097-0.208
		c0.378,0,0.752,0.08,1.11,0.225l-0.011,0.021l15.952,7.008c0.585,0.339,1.044,0.852,1.295,1.497
		C49.808,52.457,49.792,53.272,49.472,54.001z M55.932,31.846c-1.433,4.197-6.469,13.258-8.02,16.009l-12.993-5.708
		c0.819-4.063-3.108-11.76-3.977-13.394c-0.778-1.435-0.925-3.002-0.434-4.659c0.25-0.844,0.906-1.426,1.757-1.557
		c0.875-0.14,1.711,0.235,2.225,0.996c0.314,0.466,0.623,1.014,0.998,1.776c0.203,0.413,0.245,0.571,0.322,0.857
		c0.105,0.396,0.251,0.939,0.806,2.247c0.283,0.666,0.934,1.1,1.658,1.104c0.004,0,0.009,0,0.013,0c0.722,0,1.375-0.426,1.667-1.087
		l2.063-4.7c1.146-2.605,3.094-4.606,5.488-5.637c0.131-0.056,0.26-0.109,0.389-0.158c1.964-0.753,4.147-0.616,5.988,0.377
		c1.718,0.926,2.888,2.459,3.295,4.315C58.114,26.905,55.988,31.711,55.932,31.846z"/>
</g>
<g>
</g>
<g>
</g>
<g>
</g>
<g>
</g>
<g>
</g>
<g>
</g>
<g>
</g>
<g>
</g>
<g>
</g>
<g>
</g>
<g>
</g>
<g>
</g>
<g>
</g>
<g>
</g>
<g>
</g>
</svg>
