<?xml version="1.0" encoding="iso-8859-1"?>
<!-- Generator: Adobe Illustrator 18.0.0, SVG Export Plug-In . SVG Version: 6.00 Build 0)  -->
<!DOCTYPE svg PUBLIC "-//W3C//DTD SVG 1.1//EN" "http://www.w3.org/Graphics/SVG/1.1/DTD/svg11.dtd">
<svg version="1.1" id="Capa_1" xmlns="http://www.w3.org/2000/svg" xmlns:xlink="http://www.w3.org/1999/xlink" x="0px" y="0px"
	 viewBox="0 0 480.06 480.06" style="enable-background:new 0 0 480.06 480.06;" xml:space="preserve">
<path d="M459.535,163.131l-3.208-8.936l-9.09,2.74c-20.555,6.194-40.773,9.336-60.096,9.336c-30.886,0-54.38-8.105-68.65-14.904
	c-15.542-7.405-23.87-14.928-23.925-14.978l-4.685-4.341l-5.907,2.424c-115.295,47.299-180.919,61.314-220.25,67.74
	c-26.249,4.29-45.621,22.249-56.021,51.936c-7.433,21.218-7.638,41.064-7.643,41.898L0,306.107h0.061v41.904H480.06v-41.904v-10
	C480.06,221.172,460.373,165.466,459.535,163.131z M459.935,286.107h-72.121c3.052-49.108,28.504-78.338,57.089-102.445
	C450.211,202.859,458.803,240.476,459.935,286.107z M286.085,155.215c4.628,3.473,12.337,8.661,22.922,13.784
	c29.497,14.275,58.771,17.273,78.135,17.273c8.962,0,18.081-0.611,27.31-1.82c-7.81,7.852-15.213,16.467-21.753,26.171
	c-15.187,22.534-23.364,47.32-24.913,75.485H119.396c2.734-29.652,2.847-55.961,0.351-74.937
	c13.105-3.207,27.783-7.17,44.252-12.135v35.834h20v-42.084c7.671-2.479,15.689-5.161,24.068-8.064v35.195h20v-42.301
	c7.737-2.814,15.756-5.809,24.067-8.99v38.271h20v-46.075C276.705,159.006,281.35,157.141,286.085,155.215z M26.738,260.311
	c7.967-22.395,21.496-35.302,40.212-38.36c9.482-1.55,20.455-3.529,33.211-6.273c2.074,17.619,1.785,42.688-0.857,70.43H20.842
	C21.661,279.32,23.331,269.889,26.738,260.311z M460.06,328.012H20.061v-21.904H460.06V328.012z"/>
<g>
</g>
<g>
</g>
<g>
</g>
<g>
</g>
<g>
</g>
<g>
</g>
<g>
</g>
<g>
</g>
<g>
</g>
<g>
</g>
<g>
</g>
<g>
</g>
<g>
</g>
<g>
</g>
<g>
</g>
</svg>
