<?xml version="1.0" encoding="iso-8859-1"?>
<!-- Generator: Adobe Illustrator 18.0.0, SVG Export Plug-In . SVG Version: 6.00 Build 0)  -->
<!DOCTYPE svg PUBLIC "-//W3C//DTD SVG 1.1//EN" "http://www.w3.org/Graphics/SVG/1.1/DTD/svg11.dtd">
<svg version="1.1" id="Capa_1" xmlns="http://www.w3.org/2000/svg" xmlns:xlink="http://www.w3.org/1999/xlink" x="0px" y="0px"
	 viewBox="0 0 481.268 481.268" style="enable-background:new 0 0 481.268 481.268;" xml:space="preserve">
<path d="M471.268,159.142c-47.282,0-77.771,12.868-88.5,18.277l-59.342-19.556l-31.986-34.807l-7.179,9.919
	c-0.559,0.772-56.324,77.475-95.888,102.055c-18.884,11.732-52.374,17.681-99.54,17.681c-12.76,0-24.077-0.409-33.17-0.738
	c-5.737-0.208-10.269-0.372-13.575-0.372c-16.511,0-26.86,15.268-32.636,28.076c-5.393,11.959-7.874,23.771-7.977,24.268L0,311.066
	l6.319,3.599c3.123,1.777,77.637,43.546,178.23,43.546c38.796,0,59.895-6.826,84.325-14.729
	c16.236-5.253,34.306-11.095,61.051-15.875v26.185h151.343v-35.951v-10V159.142H471.268z M321.884,178.414l48.585,16.011
	c-6.347,14.171-20.361,39.536-39.336,39.536c-3.059,0-6.273-0.675-9.554-2.004c-8.736-3.541-11.002-8.405-11.945-11.757
	C306.111,207.698,315.19,189.173,321.884,178.414z M262.719,324.452c-23.761,7.688-42.529,13.759-78.17,13.759
	c-78.455,0-141.559-27.588-161.632-37.464c4.108-13.752,11.872-29.146,19.171-29.146c2.945,0,7.316,0.158,12.852,0.358
	c8.767,0.317,20.771,0.752,33.894,0.752c51.67,0,87.683-6.768,110.095-20.692c34.334-21.331,77.277-75.226,94.235-97.528
	l11.98,13.035c-2.284,3.658-5.104,8.539-7.738,14.104c-8.067,17.037-10.434,31.825-7.033,43.951
	c2.209,7.879,8.114,18.596,23.696,24.911c5.678,2.302,11.42,3.469,17.065,3.469c35.476,0,55.483-45.133,60.72-58.776
	c11.188-5.763,35.946-14.347,69.415-15.822v118.509c-53.656,0.343-92.079,3.448-121.373,7.815c-1.023,0.003-2.011,0.158-2.939,0.447
	C303.137,311.377,281.722,318.304,262.719,324.452z M349.925,333.791v-9.307c27.511-3.713,63.049-6.297,111.343-6.61v15.917H349.925
	z"/>
<g>
</g>
<g>
</g>
<g>
</g>
<g>
</g>
<g>
</g>
<g>
</g>
<g>
</g>
<g>
</g>
<g>
</g>
<g>
</g>
<g>
</g>
<g>
</g>
<g>
</g>
<g>
</g>
<g>
</g>
</svg>
