<?xml version="1.0" encoding="iso-8859-1"?>
<!-- Generator: Adobe Illustrator 19.0.0, SVG Export Plug-In . SVG Version: 6.00 Build 0)  -->
<svg version="1.1" id="Capa_1" xmlns="http://www.w3.org/2000/svg" xmlns:xlink="http://www.w3.org/1999/xlink" x="0px" y="0px"
	 viewBox="0 0 457.468 457.468" style="enable-background:new 0 0 457.468 457.468;" xml:space="preserve">
<path d="M428.734,366.296v-60.829c0-101.562-76.095-185.682-174.265-198.348l5.094-7.215l13.613-4.227
	c3.382-1.05,5.672-4.199,5.627-7.74l-0.178-14.258l8.521-11.43c2.116-2.837,2.116-6.727,0-9.564l-8.521-11.429l0.178-14.257
	c0.045-3.541-2.244-6.69-5.627-7.74l-13.613-4.228l-8.222-11.646c-2.045-2.897-5.754-4.102-9.111-2.96l-13.496,4.591l-13.496-4.591
	c-3.355-1.142-7.066,0.063-9.111,2.96l-8.222,11.646l-13.613,4.227c-3.382,1.05-5.672,4.199-5.627,7.74l0.178,14.258l-8.521,11.429
	c-2.116,2.837-2.116,6.727,0,9.564l8.521,11.43l-0.178,14.257c-0.045,3.541,2.244,6.69,5.627,7.74l13.613,4.228l5.094,7.215
	c-98.17,12.667-174.265,96.787-174.265,198.348v60.829c-14.232,7.296-24,22.11-24,39.171v8c0,24.262,19.738,44,44,44h360
	c24.262,0,44-19.738,44-44v-8C452.734,388.406,442.966,373.592,428.734,366.296z M412.734,305.468v56.19
	c-1.318-0.12-2.651-0.19-4-0.19h-28v-56c0-53.004-15.547-102.925-43.776-140.564c-5.078-6.771-10.464-12.992-16.108-18.667
	C375.741,178.114,412.734,237.55,412.734,305.468z M321.826,215.468c-1.104-4.278-5.47-6.85-9.747-5.745s-6.85,5.468-5.745,9.746
	c6.804,26.343,10.4,56.081,10.4,85.999v56h-32v-56c0-51.92-5.078-100.824-14.298-137.705c-3.491-13.963-7.405-25.591-11.724-34.881
	c13.015,10.139,24.969,26.76,34.701,48.815c1.784,4.043,6.511,5.872,10.549,4.089c4.043-1.784,5.873-6.507,4.09-10.549
	c-6.136-13.904-13.191-25.947-20.936-35.931c45.856,29.611,77.618,92.959,77.618,166.161v56h-32v-56
	C332.734,273.773,329.064,243.493,321.826,215.468z M228.734,297.468c-4.418,0-8,3.582-8,8v56h-32v-56
	c0-100.221,17.922-160.788,32-178.519v138.519c0,4.418,3.582,8,8,8s8-3.582,8-8V126.949c14.078,17.731,32,78.298,32,178.519v56h-32
	v-56C236.734,301.05,233.152,297.468,228.734,297.468z M134.313,269.68c-4.393-0.322-8.238,2.992-8.558,7.399
	c-0.678,9.332-1.021,18.883-1.021,28.389v56h-32v-56c0-73.086,31.661-136.353,77.4-166.023
	c-17.428,22.586-31.149,55.432-38.869,95.51c-0.836,4.339,2.004,8.533,6.343,9.369c0.511,0.099,1.02,0.146,1.521,0.146
	c3.758,0,7.109-2.661,7.847-6.488c9.509-49.366,28.77-87.251,51.805-105.154c-4.329,9.299-8.251,20.946-11.749,34.936
	c-9.22,36.88-14.298,85.785-14.298,137.705v56h-32v-56c0-9.121,0.329-18.282,0.979-27.23
	C142.033,273.831,138.72,269.999,134.313,269.68z M194.738,82.167l0.137-10.997c0.022-1.758-0.535-3.473-1.586-4.882l-6.576-8.82
	l6.576-8.819c1.051-1.409,1.608-3.125,1.586-4.882l-0.137-10.998l10.507-3.263c1.684-0.523,3.146-1.586,4.163-3.026l6.34-8.979
	l10.41,3.541c1.67,0.568,3.482,0.568,5.152,0l10.41-3.541l6.34,8.979c1.017,1.439,2.479,2.503,4.163,3.026l10.507,3.263
	l-0.137,10.997c-0.022,1.757,0.535,3.473,1.586,4.882l6.576,8.819l-6.576,8.82c-1.051,1.409-1.608,3.125-1.586,4.882l0.137,10.997
	l-10.507,3.263c-1.684,0.523-3.146,1.587-4.163,3.026l-6.34,8.979l-10.41-3.541c-0.835-0.284-1.706-0.427-2.576-0.427
	s-1.741,0.143-2.576,0.427l-10.41,3.541l-6.34-8.979c-1.017-1.44-2.479-2.504-4.163-3.026L194.738,82.167z M44.734,305.468
	c0-67.918,36.993-127.354,91.885-159.231c-5.644,5.675-11.03,11.896-16.108,18.667c-28.229,37.64-43.776,87.56-43.776,140.564v56
	h-28c-1.349,0-2.682,0.071-4,0.19V305.468z M436.734,413.468c0,15.439-12.561,28-28,28h-360c-15.439,0-28-12.561-28-28v-8
	c0-15.439,12.561-28,28-28h360c15.439,0,28,12.561,28,28V413.468z"/>
<g>
</g>
<g>
</g>
<g>
</g>
<g>
</g>
<g>
</g>
<g>
</g>
<g>
</g>
<g>
</g>
<g>
</g>
<g>
</g>
<g>
</g>
<g>
</g>
<g>
</g>
<g>
</g>
<g>
</g>
</svg>
