<svg xmlns="http://www.w3.org/2000/svg" width="512" height="512" viewBox="0 0 512 512"><path fill="rgba(1,1,56,.7)" d="M400 64c-5.312 0-10.562.375-15.792 1.125C354.334 24.417 307.188 0 256 0s-98.312 24.417-128.208 65.125C122.562 64.375 117.312 64 112 64 50.25 64 0 114.25 0 176s50.25 112 112 112c13.688 0 27.084-2.5 39.709-7.333C180.666 305.917 217.5 320 256 320c38.542 0 75.333-14.083 104.291-39.333A110.825 110.825 0 0 0 400 288c61.75 0 112-50.25 112-112S461.75 64 400 64zm0 192a78.763 78.763 0 0 1-28.25-5.208l-18-6.917-14.5 12.667C316 276.833 286.438 288 256 288s-60-11.167-83.25-31.458l-14.5-12.667-18 6.917c-9 3.458-18.541 5.208-28.25 5.208-44.125 0-80-35.896-80-80s35.875-80 80-80c3.792 0 7.5.271 11.25.792l18.958 2.75 11.354-15.458C177.875 50.979 215.209 32 256 32c40.812 0 78.125 18.958 102.417 52.063l11.375 15.479 18.999-2.75A80.184 80.184 0 0 1 400 96c44.125 0 80 35.896 80 80s-35.875 80-80 80zM96 320c-17.688 0-32 14.312-32 32s14.312 32 32 32 32-14.312 32-32-14.312-32-32-32zm160 32c-17.688 0-32 14.312-32 32s14.312 32 32 32 32-14.312 32-32-14.312-32-32-32zm160-32c-17.688 0-32 14.312-32 32s14.312 32 32 32 32-14.312 32-32-14.312-32-32-32zm-64 128c-17.688 0-32 14.312-32 32s14.312 32 32 32 32-14.312 32-32-14.312-32-32-32zm-192 0c-17.688 0-32 14.312-32 32s14.312 32 32 32 32-14.312 32-32-14.312-32-32-32z"/></svg>