<svg xmlns="http://www.w3.org/2000/svg" width="349.678" height="349.678" viewBox="0 0 349.678 349.678"><path fill="red" d="M203.307 210.517l-2.407-1.033V26.061C200.9 11.688 189.214 0 174.845 0c-14.37 0-26.058 11.688-26.058 26.061v183.422l-2.399 1.033a72.445 72.445 0 0 0-44.039 66.677c0 39.974 32.528 72.484 72.49 72.484 39.974 0 72.49-32.511 72.49-72.484a72.414 72.414 0 0 0-44.022-66.676zm-28.462 110.8c-24.437 0-44.247-19.811-44.247-44.232 0-21.593 15.52-39.355 35.969-43.258V86.319a8.276 8.276 0 0 1 8.278-8.278c4.563 0 8.28 3.702 8.28 8.278v147.508c20.446 3.896 35.969 21.665 35.969 43.246-.011 24.44-19.815 44.244-44.249 44.244z"/></svg>