<svg xmlns="http://www.w3.org/2000/svg" viewBox="0 0 467.669 467.669"><path fill="rgba(1,1,56,.7)" d="M271.909 281.549l-3.219-1.382V34.855C268.69 15.639 253.059 0 233.843 0s-34.855 15.631-34.855 34.855v245.312l-3.203 1.382c-35.774 15.298-58.9 50.3-58.9 89.17 0 53.462 43.504 96.949 96.95 96.949 53.462 0 96.95-43.488 96.95-96.95.007-38.861-23.102-73.871-58.876-89.169zm-38.066 148.193c-32.685 0-59.176-26.491-59.176-59.16 0-28.873 20.76-52.633 48.105-57.835v-50.543c0-6.113 4.958-11.071 11.063-11.071s11.063 4.958 11.063 11.071v50.535c27.353 5.21 48.113 28.962 48.113 57.835.008 32.676-26.483 59.168-59.168 59.168z"/></svg>